<svg class="hd" viewBox="0 0 800 620" role="img" aria-label="Social network diagram of the Q3 code review graph: a staff engineer connects the Payments, Platform and Mobile teams, each clustered around its lead; node size shows PRs reviewed and dashed edges are cross-team reviews" xmlns="http://www.w3.org/2000/svg">
<text class="d-k" x="24" y="34">CODE REVIEW GRAPH, Q3</text>
<text class="d-h" x="24" y="56">Who reviews whose PRs</text>
<ellipse class="d-blob" cx="150" cy="315" rx="140" ry="185"/>
<ellipse class="d-blob" cx="625" cy="185" rx="170" ry="150"/>
<ellipse class="d-blob" cx="560" cy="510" rx="185" ry="100"/>
<text class="d-k" x="30" y="122">PAYMENTS</text>
<text class="d-k" x="780" y="40" text-anchor="end">PLATFORM</text>
<text class="d-k" x="780" y="430" text-anchor="end">MOBILE</text>
<path class="d-edge thick" d="M367.2,298.4 L252.8,275.6"/>
<path class="d-edge thick" d="M429.1,288.4 L549.6,219.5"/>
<path class="d-edge" d="M424.8,327.5 L540.7,432.5"/>
<path class="d-edge" d="M201.3,254.5 L113.2,196.9"/>
<path class="d-edge" d="M199.2,281.6 L101.4,325.4"/>
<path class="d-edge" d="M219.3,297.7 L193.7,422.1"/>
<path class="d-edge" d="M570.4,176.2 L563.9,134.9"/>
<path class="d-edge" d="M599.0,188.4 L686.5,127.8"/>
<path class="d-edge" d="M600.9,218.5 L682.1,260.7"/>
<path class="d-edge" d="M539.3,465.9 L460.3,526.3"/>
<path class="d-edge" d="M580.7,465.9 L658.1,525.1"/>
<path class="d-edge dash" d="M687.6,285.9 L576.0,429.4"/>
<path class="d-edge dash" d="M207.1,446.6 L427.0,531.1"/>
<path class="d-edge" d="M585.2,110.9 L682.5,114.2"/>
<text class="d-lab" x="312" y="279" text-anchor="middle">41 reviews</text>
<text class="d-lab" x="428" y="259" text-anchor="middle">37 reviews</text>
<text class="d-lab" x="672" y="368" text-anchor="middle">shared SDK</text>
<text class="d-lab" x="300" y="505" text-anchor="middle">API contract</text>
<circle class="d-fillpaper" cx="400" cy="305" r="33.5"/>
<text class="d-t" x="400" y="310" text-anchor="middle">96</text>
<text class="d-lab" x="400" y="354.5" text-anchor="middle">Priya, staff eng</text>
<circle class="d-fill g3" cx="225" cy="270" r="28.3"/>
<text class="d-tw" x="225" y="275" text-anchor="middle">58</text>
<text class="d-lab" x="225" y="234.7" text-anchor="middle">Marco</text>
<circle class="d-fill g3" cx="95" cy="185" r="21.8"/>
<text class="d-tw" x="95" y="190" text-anchor="middle">24</text>
<text class="d-lab" x="95" y="222.8" text-anchor="middle">Aisha</text>
<circle class="d-fill g3" cx="80" cy="335" r="23.4"/>
<text class="d-tw" x="80" y="340" text-anchor="middle">31</text>
<text class="d-lab" x="80" y="374.4" text-anchor="middle">Tom</text>
<circle class="d-fill g3" cx="190" cy="440" r="18.3"/>
<text class="d-tw" x="190" y="445" text-anchor="middle">12</text>
<text class="d-lab" x="190" y="474.3" text-anchor="middle">Lena</text>
<circle class="d-fill g1" cx="575" cy="205" r="29.2"/>
<text class="d-tw" x="575" y="210" text-anchor="middle">64</text>
<text class="d-lab" x="575" y="250.2" text-anchor="middle">Kenji</text>
<circle class="d-fill g1" cx="560" cy="110" r="25.2"/>
<text class="d-tw" x="560" y="115" text-anchor="middle">40</text>
<text class="d-lab" x="528.8" y="114" text-anchor="end">Sara</text>
<circle class="d-fill g1" cx="705" cy="115" r="22.5"/>
<text class="d-tw" x="705" y="120" text-anchor="middle">27</text>
<text class="d-lab" x="705" y="153.5" text-anchor="middle">Omar</text>
<circle class="d-fill g1" cx="700" cy="270" r="20.2"/>
<text class="d-tw" x="700" y="275" text-anchor="middle">18</text>
<text class="d-lab" x="700" y="306.2" text-anchor="middle">Dev</text>
<circle class="d-fill g2" cx="560" cy="450" r="26.1"/>
<text class="d-tw" x="560" y="455" text-anchor="middle">45</text>
<text class="d-lab" x="560" y="492.1" text-anchor="middle">Rosa</text>
<circle class="d-fill g2" cx="445" cy="538" r="19.3"/>
<text class="d-tw" x="445" y="543" text-anchor="middle">15</text>
<text class="d-lab" x="445" y="573.3" text-anchor="middle">Ivan</text>
<circle class="d-fill g2" cx="675" cy="538" r="21.3"/>
<text class="d-tw" x="675" y="543" text-anchor="middle">22</text>
<text class="d-lab" x="675" y="575.3" text-anchor="middle">Mei</text>
<circle class="d-fillpaper" cx="34" cy="588" r="8"/><circle class="d-fillpaper" cx="58" cy="588" r="13"/>
<text class="d-s" x="80" y="592">size = PRs reviewed</text>
<path class="d-edge dash" d="M220,588 H262"/><text class="d-s" x="270" y="592">cross-team</text>
</svg>
