<svg class="hd" viewBox="0 0 800 548" role="img" aria-label="Gantt chart of the payments v2 API release over eight weeks: spec and OAuth scopes done, pagination delayed past today, rate limits in progress, SDK codegen, critical load test, v1 deprecation headers and docs pending, with finish-to-start dependencies leading to the GA launch milestone on Oct 24" xmlns="http://www.w3.org/2000/svg">
<defs><marker id="gantt-chart-d1-ah" viewBox="0 0 10 10" refX="8.5" refY="5" markerWidth="7" markerHeight="7" orient="auto-start-reverse"><path d="M0,1 L9,5 L0,9 z" class="d-fillink"/></marker></defs>
<text class="d-k" x="20" y="34">payments-api</text>
<text class="d-h" x="20" y="56">v2 API release plan</text>
<rect class="d-box g1" x="400" y="26" width="22" height="16" rx="4"/>
<text class="d-s" x="430" y="39">Done</text>
<rect class="d-box g4" x="510" y="26" width="22" height="16" rx="4"/>
<text class="d-s" x="540" y="39">In progress</text>
<rect class="d-box g3" x="650" y="26" width="22" height="16" rx="4"/>
<text class="d-s" x="680" y="39">Delayed</text>
<rect class="d-box g0" x="400" y="52" width="22" height="16" rx="4"/>
<text class="d-s" x="430" y="65">Pending</text>
<rect class="d-blob" x="510" y="52" width="22" height="16" rx="4"/>
<text class="d-s" x="540" y="65">Critical path</text>
<path class="d-box g2" d="M661,52 L669,60 L661,68 L653,60 Z"/>
<text class="d-s" x="680" y="65">Milestone</text>
<rect class="d-box g2" x="243" y="84" width="61" height="38" rx="6"/>
<text class="d-k" x="273.5" y="100" text-anchor="middle">Wk 1</text>
<text class="d-s" x="273.5" y="115" text-anchor="middle">Sep 1</text>
<rect class="d-box g2" x="310" y="84" width="61" height="38" rx="6"/>
<text class="d-k" x="340.5" y="100" text-anchor="middle">Wk 2</text>
<text class="d-s" x="340.5" y="115" text-anchor="middle">Sep 8</text>
<rect class="d-box g2" x="377" y="84" width="61" height="38" rx="6"/>
<text class="d-k" x="407.5" y="100" text-anchor="middle">Wk 3</text>
<text class="d-s" x="407.5" y="115" text-anchor="middle">Sep 15</text>
<rect class="d-box g2" x="444" y="84" width="61" height="38" rx="6"/>
<text class="d-k" x="474.5" y="100" text-anchor="middle">Wk 4</text>
<text class="d-s" x="474.5" y="115" text-anchor="middle">Sep 22</text>
<rect class="d-box g2" x="511" y="84" width="61" height="38" rx="6"/>
<text class="d-k" x="541.5" y="100" text-anchor="middle">Wk 5</text>
<text class="d-s" x="541.5" y="115" text-anchor="middle">Sep 29</text>
<rect class="d-box g2" x="578" y="84" width="61" height="38" rx="6"/>
<text class="d-k" x="608.5" y="100" text-anchor="middle">Wk 6</text>
<text class="d-s" x="608.5" y="115" text-anchor="middle">Oct 6</text>
<rect class="d-box g2" x="645" y="84" width="61" height="38" rx="6"/>
<text class="d-k" x="675.5" y="100" text-anchor="middle">Wk 7</text>
<text class="d-s" x="675.5" y="115" text-anchor="middle">Oct 13</text>
<rect class="d-box g2" x="712" y="84" width="61" height="38" rx="6"/>
<text class="d-k" x="742.5" y="100" text-anchor="middle">Wk 8</text>
<text class="d-s" x="742.5" y="115" text-anchor="middle">Oct 20</text>
<path class="d-grid" d="M240,130 V490"/>
<path class="d-grid" d="M307,130 V490"/>
<path class="d-grid" d="M374,130 V490"/>
<path class="d-grid" d="M441,130 V490"/>
<path class="d-grid" d="M508,130 V490"/>
<path class="d-grid" d="M575,130 V490"/>
<path class="d-grid" d="M642,130 V490"/>
<path class="d-grid" d="M709,130 V490"/>
<path class="d-grid" d="M776,130 V490"/>
<rect class="d-box g2" x="20" y="135" width="208" height="30" rx="6"/>
<text class="d-t" x="32" y="155">1. OpenAPI v2 spec</text>
<rect class="d-box g1" x="240" y="137" width="100.5" height="26" rx="5"/>
<text class="d-m" x="248" y="154">@api-core</text>
<rect class="d-box g2" x="20" y="175" width="208" height="30" rx="6"/>
<text class="d-t" x="32" y="195">2. OAuth scopes</text>
<rect class="d-box g1" x="357.2" y="177" width="83.8" height="26" rx="5"/>
<text class="d-m" x="365.2" y="194">@identity</text>
<rect class="d-box g2" x="20" y="215" width="208" height="30" rx="6"/>
<text class="d-t" x="32" y="235">3. Pagination, filters</text>
<rect class="d-box g3" x="374" y="217" width="167.5" height="26" rx="5"/>
<text class="d-m" x="382" y="234">@api-core</text>
<rect class="d-box g2" x="20" y="255" width="208" height="30" rx="6"/>
<text class="d-t" x="32" y="275">4. SDK codegen TS, Py</text>
<rect class="d-box g0" x="558.2" y="257" width="83.8" height="26" rx="5"/>
<text class="d-m" x="566.2" y="274">@dx</text>
<rect class="d-box g2" x="20" y="295" width="208" height="30" rx="6"/>
<text class="d-t" x="32" y="315">5. Gateway rate limits</text>
<rect class="d-box g4" x="424.2" y="297" width="150.8" height="26" rx="5"/>
<text class="d-m" x="432.2" y="314">@platform</text>
<rect class="d-box g2" x="20" y="335" width="208" height="30" rx="6"/>
<text class="d-t" x="32" y="355">6. Load test 5k rps</text>
<rect class="d-blob" x="591.8" y="337" width="67.0" height="26" rx="5"/>
<text class="d-m" x="599.8" y="354">@sre</text>
<rect class="d-box g2" x="20" y="375" width="208" height="30" rx="6"/>
<text class="d-t" x="32" y="395">7. v1 deprecation headers</text>
<rect class="d-box g0" x="675.5" y="377" width="67.0" height="26" rx="5"/>
<text class="d-m" x="683.5" y="394">@infra</text>
<rect class="d-box g2" x="20" y="415" width="208" height="30" rx="6"/>
<text class="d-t" x="32" y="435">8. Docs, migration guide</text>
<rect class="d-box g0" x="524.8" y="417" width="184.2" height="26" rx="5"/>
<text class="d-m" x="532.8" y="434">@devrel</text>
<rect class="d-box g2" x="20" y="455" width="208" height="30" rx="6"/>
<text class="d-t" x="32" y="475">9. v2 GA launch</text>
<path class="d-box g2" d="M759.2,458 L771.2,470 L759.2,482 L747.2,470 Z"/>
<text class="d-t" x="739.2" y="475" text-anchor="end">GA, Fri Oct 24</text>
<path class="d-edge acc" d="M342.5,150 H347.5 V190 H355.2" marker-end="url(#gantt-chart-d1-ah)"/>
<path class="d-edge acc" d="M543.5,230 H548.5 V270 H556.2" marker-end="url(#gantt-chart-d1-ah)"/>
<path class="d-edge acc" d="M577,310 H582 V350 H589.8" marker-end="url(#gantt-chart-d1-ah)"/>
<path class="d-edge acc" d="M660.8,350 H665.8 V390 H673.5" marker-end="url(#gantt-chart-d1-ah)"/>
<path class="d-edge acc" d="M744.5,390 H759.2 V456" marker-end="url(#gantt-chart-d1-ah)"/>
<rect class="d-fill g3" x="506" y="124" width="4" height="374" rx="2"/>
<rect class="d-fill g3" x="446" y="498" width="124" height="30" rx="6"/>
<text class="d-tw" x="508" y="518" text-anchor="middle">Today, Sep 29</text>
<text class="d-s" x="20" y="518">arrows: finish to start</text>
<text class="d-s" x="780" y="518" text-anchor="end">pagination slip eats the buffer</text>
</svg>
