<svg class="hd" viewBox="0 0 800 590" role="img" aria-label="Components of a PostgreSQL index scan: planner, executor, generic index API, btree, table AM with heap, and WAL" xmlns="http://www.w3.org/2000/svg">
<defs><marker id="index-d1-ah" viewBox="0 0 10 10" refX="8.5" refY="5" markerWidth="7" markerHeight="7" orient="auto-start-reverse"><path d="M0,1 L9,5 L0,9 z" class="d-fillink"/></marker></defs>
<rect class="d-blob" x="20" y="20" width="370" height="120" rx="30"/>
<text class="d-s" x="36" y="42">PLANNING</text>
<rect class="d-blob" x="410" y="20" width="370" height="120" rx="30"/>
<text class="d-s" x="426" y="42">EXECUTOR</text>
<rect class="d-blob" x="20" y="175" width="370" height="120" rx="30"/>
<text class="d-s" x="374" y="197" text-anchor="end">GENERIC INDEX API</text>
<rect class="d-blob" x="410" y="175" width="370" height="280" rx="30"/>
<text class="d-s" x="426" y="197">TABLE AM + HEAP FILE (disk)</text>
<rect class="d-blob" x="20" y="330" width="370" height="125" rx="30"/>
<text class="d-s" x="374" y="352" text-anchor="end">INDEX AM + INDEX FILE (disk)</text>
<rect class="d-blob" x="20" y="480" width="370" height="90" rx="30"/>
<text class="d-s" x="36" y="502">STORAGE (disk)</text>

<rect class="d-box g0" x="40" y="60" width="120" height="52" rx="14"/>
<text class="d-t" x="100" y="91" text-anchor="middle">amcostestimate</text>
<rect class="d-box g0" x="255" y="60" width="115" height="52" rx="14"/>
<text class="d-t" x="312" y="91" text-anchor="middle">Planner paths</text>
<rect class="d-box g1" x="470" y="60" width="180" height="52" rx="14"/>
<g transform="translate(476,66) scale(0.8)"><circle class="d-fillpaper" cx="20" cy="20" r="9"/><circle class="d-lineacc" cx="20" cy="20" r="3.5"/><path class="d-line" d="M20,3 V8 M20,32 V37 M3,20 H8 M32,20 H37 M8,8 L11.5,11.5 M28.5,28.5 L32,32 M8,32 L11.5,28.5 M28.5,11.5 L32,8"/></g>
<text class="d-t" x="562" y="91" text-anchor="middle">IndexNext node</text>

<rect class="d-box g2" x="40" y="225" width="130" height="52" rx="14"/>
<text class="d-t" x="105" y="247" text-anchor="middle">indexam.c</text>
<text class="d-s" x="105" y="264" text-anchor="middle">index_* wrappers</text>
<rect class="d-box g2" x="256" y="225" width="116" height="52" rx="14"/>
<text class="d-t" x="314" y="256" text-anchor="middle">IndexAmRoutine</text>
<rect class="d-box g3" x="445" y="225" width="140" height="52" rx="14"/>
<text class="d-t" x="515" y="256" text-anchor="middle">Table AM hooks</text>

<rect class="d-box g4" x="40" y="375" width="125" height="52" rx="14"/>
<text class="d-t" x="102" y="406" text-anchor="middle">nbtree search</text>
<rect class="d-box g4" x="230" y="375" width="148" height="52" rx="14"/>
<g transform="translate(234,381) scale(0.8)"><rect class="d-fillpaper" x="5" y="4" width="30" height="32" rx="3"/><path class="d-lineacc" d="M5,12 H35"/><rect class="d-fillacc" x="10" y="17" width="20" height="4" rx="1"/><rect class="d-fillacc" x="10" y="24" width="14" height="4" rx="1"/></g>
<text class="d-t" x="272" y="406">Leaf page TIDs</text>
<rect class="d-box g3" x="440" y="385" width="190" height="52" rx="14"/>
<g transform="translate(444,391) scale(0.8)"><path class="d-fillpaper" d="M5,9 V31 C5,36 35,36 35,31 V9"/><ellipse class="d-fillpaper" cx="20" cy="9" rx="15" ry="5"/><path class="d-lineacc" d="M5,20 C5,25 35,25 35,20"/></g>
<text class="d-t" x="578" y="416" text-anchor="middle">Heap page + HOT</text>
<rect class="d-box g5" x="50" y="510" width="170" height="48" rx="14"/>
<g transform="translate(56,514) scale(0.8)"><rect class="d-fillpaper" x="6" y="4" width="28" height="32" rx="3"/><path class="d-line" d="M12,4 V36"/><path class="d-lineacc" d="M17,12 H29 M17,19 H29 M17,26 H25"/></g>
<text class="d-t" x="148" y="539" text-anchor="middle">WAL records</text>

<path class="d-edge" d="M255,76 H162" marker-end="url(#index-d1-ah)"/>
<text class="d-lab" x="208" y="70" text-anchor="middle">asks</text>
<path class="d-edge" d="M162,98 H255" marker-end="url(#index-d1-ah)"/>
<text class="d-lab" x="208" y="118" text-anchor="middle">returns cost</text>
<path class="d-edge acc" d="M370,86 H468" marker-end="url(#index-d1-ah)"/>
<text class="d-lab" x="419" y="80" text-anchor="middle">chooses plan</text>
<path class="d-edge acc" d="M500,112 C500,170 105,150 105,223" marker-end="url(#index-d1-ah)"/>
<text class="d-lab" x="300" y="158" text-anchor="middle">begin / insert</text>
<path class="d-edge acc" d="M575,112 V223" marker-end="url(#index-d1-ah)"/>
<text class="d-lab" x="575" y="172" text-anchor="middle">getnext_slot</text>
<path class="d-edge acc" d="M172,251 H254" marker-end="url(#index-d1-ah)"/>
<text class="d-lab" x="213" y="244" text-anchor="middle">dispatches</text>
<path class="d-edge acc" d="M445,251 H374" marker-end="url(#index-d1-ah)"/>
<text class="d-lab" x="409" y="244" text-anchor="middle">amgettuple</text>
<path class="d-edge acc" d="M314,277 C314,335 102,320 102,373" marker-end="url(#index-d1-ah)"/>
<text class="d-lab" x="230" y="326" text-anchor="middle">invokes</text>
<path class="d-edge" d="M167,401 H228" marker-end="url(#index-d1-ah)"/>
<text class="d-lab" x="197" y="393" text-anchor="middle">descends</text>
<path class="d-edge dash" d="M378,408 C440,408 470,340 470,279" marker-end="url(#index-d1-ah)"/>
<text class="d-lab" x="442" y="352" text-anchor="middle">TID back</text>
<path class="d-edge acc" d="M545,277 V383" marker-end="url(#index-d1-ah)"/>
<text class="d-lab" x="545" y="335" text-anchor="middle">fetches row</text>
<path class="d-edge dash" d="M145,427 V508" marker-end="url(#index-d1-ah)"/>
<text class="d-lab" x="145" y="472" text-anchor="middle">logs splits</text>
</svg>
